<svg width="90" height="83" viewBox="0 0 90 83" fill="none" xmlns="http://www.w3.org/2000/svg">
<path fill-rule="evenodd" clip-rule="evenodd" d="M4.9026 12.9064C1.45074 16.088 2.9104 37.249 6.41263 35.34C8.9808 33.9551 9.17208 30.8743 7.74183 14.9059C7.45536 11.185 7.07234 10.9066 4.9026 12.9064ZM7.29493 40.2095C4.21435 42.8805 9.62861 61.4208 13.3031 60.8404C15.7649 60.4515 15.4629 56.3941 12.1746 46.7827C9.39304 38.7106 9.24809 38.5075 7.29493 40.2095ZM58.9781 49.106C55.3676 50.8062 61.2721 54.0915 68.0718 54.2226C69.6925 54.2302 71.0613 54.3153 71.1832 54.3713C71.3959 54.526 65.0857 57.9708 57.6712 61.816C45.834 67.9415 46.7877 71.5947 58.4122 65.3144C67.4008 60.4674 73.1699 57.4094 73.4638 57.3629C73.6476 57.3339 73.3978 57.9006 72.9878 58.6433C66.8928 69.1721 65.6073 72.2374 66.9959 72.9219C69.0479 73.9912 71.6798 71.5794 74.9651 65.6749C79.8961 56.8365 81.5239 54.508 85.8093 50.4039C87.4801 48.8218 85.666 48.5434 80.605 49.6442C72.9216 51.3098 68.6301 51.0838 63.8783 48.8969C62.3253 48.1253 60.9429 48.1931 58.9781 49.106ZM35.2889 73.9007C39.147 73.2912 39.5763 72.4325 41.3011 70.2394L40.4307 69.7366C39.9319 69.4388 37.94 69.2262 35.7141 69.2012C30.6626 69.1706 26.5955 67.7417 22.2323 64.4388C21.6792 64.0366 21.1435 63.7446 21.0023 63.8045C10.9074 67.1316 24.3758 75.6246 35.2889 73.9007Z" fill="#FFC13D"/>
</svg>
